<svg xmlns="http://www.w3.org/2000/svg" viewBox="0 0 480 560" role="img" aria-labelledby="title desc">
  <title id="title">Academic profile placeholder</title>
  <desc id="desc">A cool-toned abstract portrait placeholder for the homepage.</desc>
  <defs>
    <linearGradient id="bg" x1="0%" x2="100%" y1="0%" y2="100%">
      <stop offset="0%" stop-color="#dfeaf5" />
      <stop offset="100%" stop-color="#b8cce0" />
    </linearGradient>
    <linearGradient id="face" x1="0%" x2="100%" y1="0%" y2="100%">
      <stop offset="0%" stop-color="#f7f5ef" />
      <stop offset="100%" stop-color="#ddd6c8" />
    </linearGradient>
  </defs>
  <rect width="480" height="560" rx="36" fill="url(#bg)" />
  <circle cx="240" cy="196" r="92" fill="#8aa6c1" opacity="0.22" />
  <path d="M161 182c0-52 35-92 79-92s79 40 79 92v68c0 49-35 90-79 90s-79-41-79-90z" fill="url(#face)" />
  <path d="M166 187c6-57 48-101 101-101 34 0 65 19 84 47-10 16-31 34-61 37-20 3-38-1-53-8-17 16-40 25-71 25z" fill="#547392" />
  <path d="M128 474c20-73 64-110 112-110s92 37 112 110" fill="#6a88a8" />
  <path d="M138 483c11-48 48-79 102-79s91 31 102 79" fill="#f4f7fb" opacity="0.84" />
</svg>
